<svg viewBox="0 0 512 512" xmlns="http://www.w3.org/2000/svg" fill="#ffffff" stroke="#ffffff"><g id="SVGRepo_bgCarrier" stroke-width="0"></g><g id="SVGRepo_tracerCarrier" stroke-linecap="round" stroke-linejoin="round"></g><g id="SVGRepo_iconCarrier"><title>ionicons-v5-d</title><path d="M224,232a32,32,0,0,1,64,0" style="fill:none;stroke:#ffffff;stroke-linecap:round;stroke-linejoin:round;stroke-width:32px"></path><line x1="448" y1="200" x2="464" y2="200" style="fill:none;stroke:#ffffff;stroke-linecap:round;stroke-linejoin:round;stroke-width:32px"></line><line x1="64" y1="200" x2="48" y2="200" style="fill:none;stroke:#ffffff;stroke-linecap:round;stroke-linejoin:round;stroke-width:32px"></line><path d="M64,200c0,96,16,128,80,128s80-32,80-128c0,0-16-16-80-16S64,200,64,200Z" style="fill:none;stroke:#ffffff;stroke-linecap:round;stroke-linejoin:round;stroke-width:32px"></path><path d="M448,200c0,96-16,128-80,128s-80-32-80-128c0,0,16-16,80-16S448,200,448,200Z" style="fill:none;stroke:#ffffff;stroke-linecap:round;stroke-linejoin:round;stroke-width:32px"></path></g></svg>
